<svg xmlns="http://www.w3.org/2000/svg" width="12" height="12" viewBox="0 0 12 12"><defs><style>.cls-1{fill:#fff;fill-rule:evenodd}</style></defs><path class="cls-1" d="M12 2.07v7.86a2.547 2.547 0 0 1-.431 1.07 2.475 2.475 0 0 1-1.639 1H2.07a2.6 2.6 0 0 1-1.071-.43 2.459 2.459 0 0 1-1-1.64V2.07A2.534 2.534 0 0 1 .43 1a2.475 2.475 0 0 1 1.639-1h7.86A2.6 2.6 0 0 1 11 .43a2.459 2.459 0 0 1 1 1.64zm-6.024 8.52h3.838a.732.732 0 0 0 .763-.74V5.26a.129.129 0 0 0-.162-.15h-.644c-.187 0-.192.01-.157.18a3.728 3.728 0 0 1 .027 1.25 3.683 3.683 0 0 1-4.1 3.13 3.591 3.591 0 0 1-3.075-2.51 3.387 3.387 0 0 1-.115-1.88c.03-.14 0-.18-.143-.17-.2.01-.41 0-.615 0s-.205 0-.205.2v4.5a.871.871 0 0 0 .016.19.723.723 0 0 0 .761.59h3.809zM8.276 6a2.29 2.29 0 1 0-2.294 2.3A2.3 2.3 0 0 0 8.273 6zm2.306-3.43v-.39a.749.749 0 0 0-.763-.76h-.734a.752.752 0 0 0-.789.77c-.007.25-.006.5 0 .75a.76.76 0 0 0 .772.77h.75a.755.755 0 0 0 .764-.79 20.42 20.42 0 0 1-.003-.35z"/></svg>