<svg xmlns="http://www.w3.org/2000/svg" width="18.031" height="23" viewBox="0 0 8.031 13"><defs><style>.cls-1{fill:#fff;fill-rule:evenodd}</style></defs><path class="cls-1" d="M1.331 13a.978.978 0 0 1-.577-.41.737.737 0 0 1 .087-.98c.372-.36.746-.72 1.12-1.09l1.328-1.29a.063.063 0 0 0 .037-.05.065.065 0 0 0-.062-.02 6.013 6.013 0 0 1-.842-.14 4.492 4.492 0 0 1-1.419-.54 4.252 4.252 0 0 1-.705-.5.853.853 0 0 1-.275-.38.722.722 0 0 1 .015-.45.892.892 0 0 1 .36-.49.783.783 0 0 1 .6-.1 1.275 1.275 0 0 1 .5.23 3.7 3.7 0 0 0 1.463.64 4.649 4.649 0 0 0 1.176.12 5.321 5.321 0 0 0 1.313-.22 3.129 3.129 0 0 0 1.08-.53 1.214 1.214 0 0 1 .577-.25.758.758 0 0 1 .73.3.881.881 0 0 1 .194.65.694.694 0 0 1-.235.42 3.359 3.359 0 0 1-.616.47 4.771 4.771 0 0 1-1.862.69c-.176.03-.352.06-.529.08a.1.1 0 0 0-.07.02.259.259 0 0 0 .053.06q1.2 1.17 2.411 2.34a.777.777 0 0 1 .259.58.758.758 0 0 1-.217.52 1.01 1.01 0 0 1-.5.32h-.312a1.036 1.036 0 0 1-.438-.25q-.934-.915-1.874-1.83c-.07-.07-.07-.07-.138 0-.6.58-1.2 1.16-1.791 1.75a1.184 1.184 0 0 1-.52.33h-.321zM4.253 0l.277.03a3.43 3.43 0 0 1 1.885.94 3.22 3.22 0 0 1 .693 3.66 3.276 3.276 0 0 1-1.437 1.54 3.378 3.378 0 0 1-1.392.41 3.3 3.3 0 0 1-1.428-.19A3.324 3.324 0 0 1 .985 4.77a3.231 3.231 0 0 1 .165-3.24A3.294 3.294 0 0 1 2.814.21a2.893 2.893 0 0 1 .919-.2c.017 0 .034-.01.051-.01h.469zm-.231 1.69a1.606 1.606 0 1 0-.094 3.21 1.645 1.645 0 0 0 1.735-1.54 1.626 1.626 0 0 0-1.64-1.67z"/></svg>