<svg xmlns="http://www.w3.org/2000/svg" width="17" height="20" viewBox="0 0 7 10"><defs><style>.cls-1{fill:#fff;fill-rule:evenodd}</style></defs><path class="cls-1" d="M0 5V.13C0 0 0 0 .113 0h3c.324 0 .649.01.973.03A2.908 2.908 0 0 1 5.422.4a1.974 1.974 0 0 1 .982 1.62 2.714 2.714 0 0 1-.291 1.59 2.032 2.032 0 0 1-.826.83c-.024.01-.064.01-.06.06s.042.03.068.04a2.371 2.371 0 0 1 1.139.68 2.15 2.15 0 0 1 .529 1.18 3.544 3.544 0 0 1-.124 1.63 2.7 2.7 0 0 1-1.118 1.44 3.041 3.041 0 0 1-1.346.48 7.677 7.677 0 0 1-.958.05H.11c-.105 0-.105 0-.105-.12V5zm2.187 1.91v1.15c0 .08.021.11.089.11.379-.01.759-.01 1.138-.02a1.779 1.779 0 0 0 .559-.1 1.016 1.016 0 0 0 .691-.69 1.762 1.762 0 0 0 .062-.61 1.019 1.019 0 0 0-.542-.93 1.668 1.668 0 0 0-.757-.15c-.387-.01-.773 0-1.16 0-.063 0-.08.02-.08.09v1.15zm0-4.02v.97c0 .07.019.09.081.09.218 0 .437.01.654 0a2.428 2.428 0 0 0 .538-.05.867.867 0 0 0 .613-.48 1.394 1.394 0 0 0 .081-.83.8.8 0 0 0-.612-.69 1.417 1.417 0 0 0-.352-.05c-.306-.01-.612 0-.918-.01-.071 0-.086.03-.086.11.002.31.001.63.001.94z"/></svg>