<svg xmlns="http://www.w3.org/2000/svg" width="19" height="20" viewBox="0 0 19 20"><defs><style>.cls-1{fill:#c9c9c9;fill-rule:evenodd}</style></defs><path class="cls-1" d="M0 10.08V1.71A1.749 1.749 0 0 1 .407.58a1.6 1.6 0 0 1 .97-.56.707.707 0 0 1 .2-.02h15.78a1.5 1.5 0 0 1 .961.37 1.663 1.663 0 0 1 .525.78 2.592 2.592 0 0 1 .09.5 14.232 14.232 0 0 1 .027 1.52c.01.51 0 1.02 0 1.53v13.57a.248.248 0 0 1-.041.19.209.209 0 0 0-.01.13.117.117 0 0 1-.037.11.033.033 0 0 0-.013.03.766.766 0 0 1-.065.22.566.566 0 0 1-.061.12 2.251 2.251 0 0 1-.376.47 1.241 1.241 0 0 1-.4.28.325.325 0 0 1-.215.07.032.032 0 0 0-.03.01.156.156 0 0 1-.159.04.16.16 0 0 0-.143.05.079.079 0 0 1-.068.01H1.6a.192.192 0 0 1-.143-.04.194.194 0 0 0-.132-.02.116.116 0 0 1-.122-.04.128.128 0 0 0-.017-.01.574.574 0 0 1-.219-.06.282.282 0 0 1-.139-.08c-.06-.05-.133-.08-.195-.13-.073-.07-.136-.14-.2-.21a1.652 1.652 0 0 1-.2-.26c-.026-.05-.037-.1-.067-.15-.042-.07-.051-.15-.1-.22a.081.081 0 0 1-.011-.05.2.2 0 0 0-.041-.15.166.166 0 0 1-.012-.1v-2.71C0 13.87 0 11.97 0 10.08zm16.87 3.61c-.008-.19 0-.43-.009-.67-.013-.21-.017-.41-.028-.62a25.48 25.48 0 0 0-.078-1.03c-.034-.36-.07-.72-.136-1.08a1.8 1.8 0 0 0-1.1-1.38 2.646 2.646 0 0 0-.881-.14c-.238-.02-.477-.03-.715-.04-.3-.01-.593-.03-.889-.04l-.729-.03c-.338-.01-.675-.01-1.013-.03-.265-.01-.53-.01-.795-.01-.719 0-1.439-.02-2.159.01-.279.01-.559 0-.839.01l-.949.03-.767.03c-.187.01-.374.01-.561.02-.3.02-.606.03-.909.05a2.555 2.555 0 0 0-.391.03 1.766 1.766 0 0 0-1.138.66 1.713 1.713 0 0 0-.363.79c-.084.52-.137 1.05-.182 1.58q-.034.405-.052.81c-.014.32-.02.64-.027.96-.007.3.021.6.013.91v.03c.017.28.032.57.051.86.011.19.024.37.041.55.022.23.048.46.076.69.025.2.046.4.085.6a1.778 1.778 0 0 0 .6 1.02 1.682 1.682 0 0 0 .988.42c.225.02.451.03.676.04l1.136.06c.374.01.748.03 1.123.04.414.01.827.01 1.241.02s.806.01 1.209.01c.689 0 1.379-.01 2.068-.02.183 0 .367-.01.549-.01l1.4-.06c.2 0 .4-.01.6-.02l.838-.06a1.846 1.846 0 0 0 .657-.12 1.781 1.781 0 0 0 1.079-1.22 6.614 6.614 0 0 0 .14-.96c.044-.39.08-.78.1-1.18.024-.38.043-.76.042-1.15-.002-.1-.001-.21-.001-.36zM6.67 3.56a.25.25 0 0 1-.035-.1c-.055-.27-.134-.53-.2-.8-.14-.55-.288-1.1-.43-1.64a.075.075 0 0 0-.08-.07q-.437.015-.873 0c-.058 0-.065.02-.047.07l.249.75c.163.49.318.99.482 1.48.14.41.254.84.359 1.27a2.177 2.177 0 0 1 .093.49v2.54c0 .09 0 .09.09.09h.769c.092 0 .092 0 .092-.1V5.11a1.1 1.1 0 0 1 .045-.34c.041-.13.083-.27.121-.41.136-.48.278-.96.417-1.44.065-.22.128-.44.193-.67l.225-.78c.043-.15.086-.29.13-.44.015-.05 0-.08-.054-.08q-.417.015-.834 0a.067.067 0 0 0-.074.07l-.078.32c-.1.41-.208.82-.311 1.23-.064.26-.138.52-.189.78a.877.877 0 0 1-.056.21zm4.9 1.25v1.96a2.538 2.538 0 0 0 .042.45.538.538 0 0 0 .488.49 1.009 1.009 0 0 0 .629-.18 2.435 2.435 0 0 0 .393-.36c.015-.02.03-.05.055-.04a.076.076 0 0 1 .01.07v.36c0 .06.014.08.075.08h.711a.063.063 0 0 0 .074-.08c0-.28 0-.56-.006-.85 0-.34-.007-.68 0-1.02.009-.3 0-.6-.005-.9V2.76c0-.09 0-.09-.088-.09h-.679a.06.06 0 0 0-.072.07c0 .21-.007.43-.008.64v2.83a.565.565 0 0 1-.154.46.922.922 0 0 1-.3.21.21.21 0 0 1-.3-.18 1.35 1.35 0 0 1-.017-.2V2.77c0-.1 0-.1-.094-.1h-.666c-.091 0-.092 0-.092.1v2.04zm-3.259.36v.94a2.468 2.468 0 0 0 .1.74 1.161 1.161 0 0 0 .77.8 1.286 1.286 0 0 0 .645.04 1.138 1.138 0 0 0 .873-.68 2.1 2.1 0 0 0 .159-.88c.006-.66 0-1.32-.007-1.98a2.889 2.889 0 0 0-.055-.53 1.183 1.183 0 0 0-.683-.9 1.2 1.2 0 0 0-.619-.11 1.144 1.144 0 0 0-.951.56 1.783 1.783 0 0 0-.223.9c-.02.37-.008.74-.008 1.1zm2.358 7.23c.089-.07.162-.16.249-.24a.97.97 0 0 1 .621-.26.666.666 0 0 1 .693.5 1.637 1.637 0 0 1 .089.51c.035.96.013 1.91.012 2.87a2.615 2.615 0 0 1-.075.65.705.705 0 0 1-.607.58.909.909 0 0 1-.7-.24 1.818 1.818 0 0 1-.275-.29 1.061 1.061 0 0 0-.008.2v.2a.055.055 0 0 1-.055.07h-.756a.048.048 0 0 1-.053-.06v-6.52a.258.258 0 0 0 0-.04.063.063 0 0 1 .075-.08h.705c.064-.01.086.02.085.09v2.06zm.007 2.05v1.44a.138.138 0 0 0 .037.12.67.67 0 0 0 .293.16.312.312 0 0 0 .4-.21.849.849 0 0 0 .058-.28c.013-.77 0-1.54 0-2.31a1.135 1.135 0 0 0-.069-.44.331.331 0 0 0-.378-.21.745.745 0 0 0-.28.15.162.162 0 0 0-.064.14c.005.48.004.96.004 1.44zm2.328-.01c0-.33-.006-.66 0-.98a2.06 2.06 0 0 1 .166-.87 1.166 1.166 0 0 1 .935-.68 1.325 1.325 0 0 1 .736.09 1.218 1.218 0 0 1 .7.93 3 3 0 0 1 .055.58v1.03a.066.066 0 0 1-.081.08H13.98c-.1 0-.1 0-.1.11v.85a.944.944 0 0 0 .064.35.388.388 0 0 0 .462.25.418.418 0 0 0 .3-.39c.014-.17.013-.33.011-.5 0-.06.017-.08.074-.08h.744c.035 0 .072 0 .071.05a4.771 4.771 0 0 1-.026.73A1.2 1.2 0 0 1 14.529 17a1.384 1.384 0 0 1-.777-.11 1.221 1.221 0 0 1-.676-.91 3.132 3.132 0 0 1-.064-.63v-.91zm1.293-.58h.362a.058.058 0 0 0 .068-.07v-.45a1.029 1.029 0 0 0-.063-.37.372.372 0 0 0-.365-.26.387.387 0 0 0-.36.27 1.05 1.05 0 0 0-.036.13 4.2 4.2 0 0 0-.027.7c0 .05.028.05.061.05h.363zM8.19 16.42c-.108.1-.193.21-.294.29a1.145 1.145 0 0 1-.592.3.57.57 0 0 1-.649-.34 1.6 1.6 0 0 1-.069-.35 6.111 6.111 0 0 1-.015-.62v-3.64c0-.11 0-.11.1-.11h.679c.085 0 .086.01.086.09v3.7a2.077 2.077 0 0 0 .012.23.206.206 0 0 0 .288.2.766.766 0 0 0 .364-.28.367.367 0 0 0 .092-.27v-3.56c0-.11 0-.11.1-.11h.686c.079 0 .083.01.083.09v4.81c0 .09 0 .1-.087.1-.235 0-.47-.01-.705 0-.063 0-.082-.02-.08-.09.004-.14.002-.28.002-.44zm-2.774-2.34v2.76c0 .11 0 .11-.1.11h-.77c-.1 0-.1 0-.1-.1v-5.51c0-.16.018-.14-.131-.14h-.808c-.059 0-.084-.01-.083-.08v-.79c0-.06.016-.08.074-.08h2.877c.054 0 .071.02.071.08v.79c0 .07-.023.08-.079.08H5.5c-.089 0-.089 0-.089.09v2.79zm4.566-8.93v1.14a.908.908 0 0 1-.079.39.342.342 0 0 1-.353.21.348.348 0 0 1-.309-.24.972.972 0 0 1-.068-.37V4a.78.78 0 0 1 .1-.4.331.331 0 0 1 .34-.18.34.34 0 0 1 .288.2.794.794 0 0 1 .083.36l-.001 1.17z"/></svg>